# xmcd CD database file
#
# Track frame offsets:
#	150
#	21893
#	40669
#	61751
#	82626
#	102315
#	126721
#	151028
#	166640
#	188773
#
# Disc length: 2866 seconds
#
# Revision: 0
# Processed by: cddbd v1.5.2PL0 Copyright (c) Steve Scherf et al.
# Submitted via: CDex 1.70beta2
#
DISCID=6a0b300a
DTITLE=Piotr Kałuzny i jego goscie, CD1 - benefis w klubie Pod Pretekstem, Poznan 2006
DYEAR=2006
DGENRE=Jazz
TTITLE0=Kakapo "Ruby Baby
TTITLE1=Kakapo "Fire And Rain"
TTITLE2=Kakapo "Angels Eyes"
TTITLE3=Jan Izba Izbinski "Your Cheatin' Heart
TTITLE4=Jan Izba Izbinski "Drown in my own tears"
TTITLE5=Ian Izba Izbinski "Georgia on my mind"
TTITLE6=Wielka Lodz "Will the circle be unbroken"
TTITLE7=Wielka Lodz "You're so fine"
TTITLE8=Wielka Lodz "Walk On
TTITLE9=Wielka Lodz "Kansas City"
EXTD=YEAR: 2006
EXTT0=
EXTT1=
EXTT2=
EXTT3=
EXTT4=
EXTT5=
EXTT6=
EXTT7=
EXTT8=
EXTT9=
PLAYORDER=
